<svg width="6" height="10" viewBox="0 0 6 10" fill="none" xmlns="http://www.w3.org/2000/svg">
<path d="M2.88 2.136V0.323999H3.48V2.136H2.88ZM2.88 9.588V7.68H3.48V9.588H2.88ZM3.132 8.184C2.692 8.184 2.304 8.14 1.968 8.052C1.632 7.956 1.352 7.824 1.128 7.656C0.904 7.48 0.732 7.276 0.612 7.044C0.5 6.804 0.444 6.54 0.444 6.252C0.444 6.212 0.444 6.176 0.444 6.144C0.452 6.112 0.456 6.084 0.456 6.06H1.692C1.692 6.084 1.692 6.108 1.692 6.132C1.692 6.148 1.692 6.168 1.692 6.192C1.692 6.44 1.76 6.64 1.896 6.792C2.032 6.936 2.212 7.04 2.436 7.104C2.668 7.16 2.92 7.188 3.192 7.188C3.432 7.188 3.652 7.16 3.852 7.104C4.06 7.048 4.228 6.96 4.356 6.84C4.492 6.712 4.56 6.556 4.56 6.372C4.56 6.132 4.476 5.948 4.308 5.82C4.14 5.692 3.92 5.592 3.648 5.52C3.376 5.44 3.092 5.36 2.796 5.28C2.532 5.208 2.268 5.128 2.004 5.04C1.748 4.952 1.516 4.844 1.308 4.716C1.1 4.58 0.932 4.408 0.804 4.2C0.676 3.984 0.612 3.72 0.612 3.408C0.612 3.112 0.676 2.852 0.804 2.628C0.932 2.404 1.108 2.216 1.332 2.064C1.564 1.912 1.836 1.796 2.148 1.716C2.468 1.636 2.816 1.596 3.192 1.596C3.584 1.596 3.932 1.64 4.236 1.728C4.54 1.808 4.796 1.928 5.004 2.088C5.22 2.24 5.384 2.42 5.496 2.628C5.608 2.836 5.664 3.06 5.664 3.3C5.664 3.356 5.66 3.408 5.652 3.456C5.652 3.504 5.652 3.536 5.652 3.552H4.428V3.444C4.428 3.284 4.384 3.14 4.296 3.012C4.208 2.884 4.068 2.78 3.876 2.7C3.692 2.62 3.444 2.58 3.132 2.58C2.924 2.58 2.74 2.6 2.58 2.64C2.42 2.672 2.288 2.724 2.184 2.796C2.08 2.86 2 2.936 1.944 3.024C1.896 3.104 1.872 3.2 1.872 3.312C1.872 3.496 1.936 3.64 2.064 3.744C2.2 3.84 2.376 3.924 2.592 3.996C2.808 4.06 3.04 4.132 3.288 4.212C3.576 4.292 3.868 4.376 4.164 4.464C4.46 4.544 4.732 4.648 4.98 4.776C5.236 4.904 5.44 5.084 5.592 5.316C5.752 5.54 5.832 5.836 5.832 6.204C5.832 6.556 5.764 6.86 5.628 7.116C5.492 7.364 5.3 7.568 5.052 7.728C4.812 7.888 4.528 8.004 4.2 8.076C3.872 8.148 3.516 8.184 3.132 8.184Z" fill="white"/>
</svg>
