<svg width="12" height="12" viewBox="0 0 12 12" fill="none" xmlns="http://www.w3.org/2000/svg">
<path d="M3.82527 10.455C3.81027 10.455 3.79027 10.465 3.77527 10.465C2.80527 9.98498 2.01527 9.18998 1.53027 8.21998C1.53027 8.20498 1.54027 8.18498 1.54027 8.16998C2.15027 8.34998 2.78027 8.48498 3.40527 8.58998C3.51527 9.21998 3.64527 9.84498 3.82527 10.455Z" fill="white"/>
<path d="M10.4695 8.22498C9.97453 9.21998 9.14953 10.025 8.14453 10.51C8.33453 9.87498 8.49453 9.23498 8.59953 8.58998C9.22953 8.48498 9.84953 8.34998 10.4595 8.16998C10.4545 8.18998 10.4695 8.20998 10.4695 8.22498Z" fill="white"/>
<path d="M10.5095 3.85499C9.87953 3.66499 9.24453 3.50999 8.59953 3.39999C8.49453 2.75499 8.33953 2.11499 8.14453 1.48999C9.17953 1.98499 10.0145 2.81999 10.5095 3.85499Z" fill="white"/>
<path d="M3.82523 1.54503C3.64523 2.15503 3.51523 2.77503 3.41023 3.40503C2.76523 3.50503 2.12523 3.66503 1.49023 3.85503C1.97523 2.85003 2.78023 2.02503 3.77523 1.53003C3.79023 1.53003 3.81023 1.54503 3.82523 1.54503Z" fill="white"/>
<path d="M7.74488 3.295C6.58488 3.165 5.41488 3.165 4.25488 3.295C4.37988 2.61 4.53988 1.925 4.76488 1.265C4.77488 1.225 4.76988 1.195 4.77488 1.155C5.16988 1.06 5.57488 1 5.99988 1C6.41988 1 6.82988 1.06 7.21988 1.155C7.22488 1.195 7.22488 1.225 7.23488 1.265C7.45988 1.93 7.61988 2.61 7.74488 3.295Z" fill="white"/>
<path d="M3.295 7.745C2.605 7.62 1.925 7.46 1.265 7.235C1.225 7.225 1.195 7.23 1.155 7.225C1.06 6.83 1 6.425 1 6C1 5.58 1.06 5.17 1.155 4.78C1.195 4.775 1.225 4.775 1.265 4.765C1.93 4.545 2.605 4.38 3.295 4.255C3.17 5.415 3.17 6.585 3.295 7.745Z" fill="white"/>
<path d="M11.0001 6C11.0001 6.425 10.9401 6.83 10.8451 7.225C10.8051 7.23 10.7751 7.225 10.7351 7.235C10.0701 7.455 9.39008 7.62 8.70508 7.745C8.83508 6.585 8.83508 5.415 8.70508 4.255C9.39008 4.38 10.0751 4.54 10.7351 4.765C10.7751 4.775 10.8051 4.78 10.8451 4.78C10.9401 5.175 11.0001 5.58 11.0001 6Z" fill="white"/>
<path d="M7.74488 8.70502C7.61988 9.39502 7.45988 10.075 7.23488 10.735C7.22488 10.775 7.22488 10.805 7.21988 10.845C6.82988 10.94 6.41988 11 5.99988 11C5.57488 11 5.16988 10.94 4.77488 10.845C4.76988 10.805 4.77488 10.775 4.76488 10.735C4.54488 10.07 4.37988 9.39502 4.25488 8.70502C4.83488 8.77002 5.41488 8.81502 5.99988 8.81502C6.58488 8.81502 7.16988 8.77002 7.74488 8.70502Z" fill="white"/>
<path d="M7.88167 7.88167C6.63112 8.03944 5.36888 8.03944 4.11833 7.88167C3.96056 6.63112 3.96056 5.36888 4.11833 4.11833C5.36888 3.96056 6.63112 3.96056 7.88167 4.11833C8.03944 5.36888 8.03944 6.63112 7.88167 7.88167Z" fill="white"/>
</svg>
