<svg width="20" height="21" viewBox="0 0 20 21" fill="none" xmlns="http://www.w3.org/2000/svg">
<g clip-path="url(#clip0_117_51897)">
<path d="M17.1834 7.54158C16.3084 3.69159 12.9501 1.95825 10.0001 1.95825C10.0001 1.95825 10.0001 1.95825 9.99175 1.95825C7.05008 1.95825 3.68341 3.68325 2.80841 7.53325C1.83341 11.8333 4.46675 15.4749 6.85008 17.7666C7.73341 18.6166 8.86675 19.0416 10.0001 19.0416C11.1334 19.0416 12.2667 18.6166 13.1417 17.7666C15.5251 15.4749 18.1584 11.8416 17.1834 7.54158ZM10.0001 11.7166C8.55008 11.7166 7.37508 10.5416 7.37508 9.09159C7.37508 7.64158 8.55008 6.46658 10.0001 6.46658C11.4501 6.46658 12.6251 7.64158 12.6251 9.09159C12.6251 10.5416 11.4501 11.7166 10.0001 11.7166Z" fill="#C4C4C5"/>
</g>
<defs>
<clipPath id="clip0_117_51897">
<rect width="20" height="20" fill="white" transform="translate(0 0.5)"/>
</clipPath>
</defs>
</svg>
