<svg width="15" height="14" viewBox="0 0 15 14" fill="none" xmlns="http://www.w3.org/2000/svg">
<path d="M11.4355 4.66699V5.89199C11.1789 5.85699 10.8872 5.83949 10.5605 5.83366V4.66699C10.5605 2.82949 10.0414 1.60449 7.49805 1.60449C4.95471 1.60449 4.43555 2.82949 4.43555 4.66699V5.83366C4.10888 5.83949 3.81721 5.85699 3.56055 5.89199V4.66699C3.56055 2.97533 3.96888 0.729492 7.49805 0.729492C11.0272 0.729492 11.4355 2.97533 11.4355 4.66699Z" fill="#030A70"/>
<path d="M11.4356 5.89134C11.179 5.85634 10.8873 5.83884 10.5606 5.83301H4.43563C4.10896 5.83884 3.81729 5.85634 3.56063 5.89134C2.07313 6.07217 1.66479 6.80134 1.66479 8.74967V9.91634C1.66479 12.2497 2.24813 12.833 4.58146 12.833H10.4148C12.7481 12.833 13.3315 12.2497 13.3315 9.91634V8.74967C13.3315 6.80134 12.9231 6.07217 11.4356 5.89134ZM5.57896 9.74717C5.46813 9.85217 5.31646 9.91634 5.16479 9.91634C5.08896 9.91634 5.01313 9.89884 4.94313 9.86967C4.86729 9.84051 4.80896 9.79967 4.75063 9.74717C4.64563 9.63634 4.58146 9.48467 4.58146 9.33301C4.58146 9.25717 4.59896 9.18134 4.62813 9.11134C4.65729 9.04134 4.69813 8.97717 4.75063 8.91884C4.80896 8.86634 4.86729 8.82551 4.94313 8.79634C5.15896 8.70301 5.41563 8.75551 5.57896 8.91884C5.63146 8.97717 5.67229 9.04134 5.70146 9.11134C5.73063 9.18134 5.74813 9.25717 5.74813 9.33301C5.74813 9.48467 5.68396 9.63634 5.57896 9.74717ZM8.03479 9.55467C8.00563 9.62467 7.96479 9.68884 7.91229 9.74717C7.80146 9.85217 7.64979 9.91634 7.49813 9.91634C7.34063 9.91634 7.19479 9.85217 7.08396 9.74717C7.03146 9.68884 6.99063 9.62467 6.96146 9.55467C6.93229 9.48467 6.91479 9.40884 6.91479 9.33301C6.91479 9.17551 6.97896 9.02967 7.08396 8.91884C7.29979 8.70301 7.69063 8.70301 7.91229 8.91884C8.01729 9.02967 8.08146 9.17551 8.08146 9.33301C8.08146 9.40884 8.06396 9.48467 8.03479 9.55467ZM10.2456 9.74717C10.1348 9.85217 9.98313 9.91634 9.83146 9.91634C9.67979 9.91634 9.52813 9.85217 9.41729 9.74717C9.31229 9.63634 9.24813 9.49051 9.24813 9.33301C9.24813 9.17551 9.31229 9.02967 9.41729 8.91884C9.63896 8.70301 10.0298 8.70301 10.2456 8.91884C10.269 8.94801 10.2923 8.97717 10.3156 9.01217C10.339 9.04134 10.3565 9.07634 10.3681 9.11134C10.3856 9.14634 10.3973 9.18134 10.4031 9.21634C10.409 9.25717 10.4148 9.29801 10.4148 9.33301C10.4148 9.48467 10.3506 9.63634 10.2456 9.74717Z" fill="#030A70"/>
</svg>
