<svg width="80" height="80" viewBox="0 0 80 80" fill="none" xmlns="http://www.w3.org/2000/svg">
<path d="M72.7998 26.0319V26.0333V53.9666C72.7998 59.9339 71.0231 64.6363 67.813 67.8464C64.6028 71.0565 59.9004 72.8333 53.9332 72.8333H26.0332C20.0659 72.8333 15.3637 71.0565 12.1536 67.8425C8.94348 64.6283 7.1665 59.9176 7.1665 53.9333V26.0333C7.1665 20.0661 8.94327 15.3636 12.1534 12.1535C15.3635 8.94339 20.0659 7.16663 26.0332 7.16663H53.9665C59.9338 7.16663 64.6361 8.94343 67.8419 12.1533C71.0476 15.363 72.8162 20.065 72.7998 26.0319ZM37.5867 27.0464L37.5854 27.045C33.0578 22.5523 25.709 22.5504 21.2129 27.0464C20.052 28.2073 20.051 30.1216 21.2099 31.2838C22.3724 32.483 24.2936 32.4831 25.4561 31.2841C27.6278 29.1154 31.1758 29.1164 33.3463 31.2868C33.945 31.8856 34.7077 32.1666 35.4665 32.1666C36.2253 32.1666 36.988 31.8856 37.5867 31.2868C38.7487 30.1249 38.7487 28.2083 37.5867 27.0464ZM56.7998 56.0071H56.7998V56C56.7998 46.7571 49.276 39.2333 40.0332 39.2333C30.7904 39.2333 23.2665 46.7571 23.2665 56C23.2665 58.6402 25.3878 60.7666 27.9998 60.7666H51.9998C54.6107 60.7666 56.7626 58.6096 56.7998 56.0071ZM58.7927 27.0525L58.7927 27.0524L58.7854 27.045C54.2578 22.5523 46.909 22.5504 42.4129 27.0464C41.251 28.2083 41.251 30.1249 42.4129 31.2868C43.0117 31.8856 43.7744 32.1666 44.5332 32.1666C45.292 32.1666 46.0547 31.8856 46.6534 31.2868C48.8248 29.1154 52.3749 29.1154 54.5463 31.2868C55.7082 32.4488 57.6248 32.4488 58.7867 31.2868C59.9519 30.1217 59.9434 28.2429 58.7927 27.0525Z" fill="#E0E0E1" stroke="#E0E0E1"/>
</svg>
