<svg width="20" height="21" viewBox="0 0 20 21" fill="none" xmlns="http://www.w3.org/2000/svg">
<path d="M2.50833 10.1V13.8416C2.50833 17.5833 4.00833 19.0833 7.75 19.0833H12.2417C15.9833 19.0833 17.4833 17.5833 17.4833 13.8416V10.1" stroke="#030A70" stroke-width="1.5" stroke-linecap="round" stroke-linejoin="round"/>
<path d="M10 10.75C11.525 10.75 12.65 9.50829 12.5 7.98329L11.95 2.41663H8.05834L7.50001 7.98329C7.35001 9.50829 8.47501 10.75 10 10.75Z" stroke="#030A70" stroke-width="1.5" stroke-linecap="round" stroke-linejoin="round"/>
<path d="M15.2583 10.75C16.9417 10.75 18.175 9.38329 18.0083 7.70829L17.775 5.41663C17.475 3.24996 16.6417 2.41663 14.4583 2.41663H11.9167L12.5 8.25829C12.6417 9.63329 13.8833 10.75 15.2583 10.75Z" stroke="#030A70" stroke-width="1.5" stroke-linecap="round" stroke-linejoin="round"/>
<path d="M4.69999 10.75C6.07499 10.75 7.31666 9.63329 7.44999 8.25829L7.63333 6.41663L8.03333 2.41663H5.49166C3.30833 2.41663 2.47499 3.24996 2.17499 5.41663L1.94999 7.70829C1.78333 9.38329 3.01666 10.75 4.69999 10.75Z" stroke="#030A70" stroke-width="1.5" stroke-linecap="round" stroke-linejoin="round"/>
<path d="M10 14.9166C8.60834 14.9166 7.91667 15.6083 7.91667 17V19.0833H12.0833V17C12.0833 15.6083 11.3917 14.9166 10 14.9166Z" stroke="#030A70" stroke-width="1.5" stroke-linecap="round" stroke-linejoin="round"/>
</svg>
