<svg width="20" height="21" viewBox="0 0 20 21" fill="none" xmlns="http://www.w3.org/2000/svg">
<path d="M7.96176 3.80908L7.96184 3.80918L7.97041 3.8017L9.27517 2.66315C9.67382 2.32991 10.3388 2.33357 10.7245 2.66283C10.7247 2.66299 10.7249 2.66315 10.7251 2.66332L12.0392 3.79448C12.0395 3.7947 12.0397 3.79492 12.04 3.79514C12.2241 3.9545 12.4634 4.07844 12.6894 4.16241C12.9156 4.24646 13.1765 4.3083 13.4167 4.3083H14.8333C15.4405 4.3083 15.9417 4.80944 15.9417 5.41663V6.8333C15.9417 7.07699 16.0032 7.33784 16.0879 7.56455C16.1725 7.79093 16.2966 8.02716 16.4549 8.21005C16.4551 8.21029 16.4553 8.21053 16.4555 8.21077L17.5867 9.52491C17.5868 9.52509 17.587 9.52527 17.5871 9.52544C17.918 9.91301 17.9189 10.5874 17.5939 10.9763L16.4638 12.2892C16.4636 12.2894 16.4634 12.2896 16.4632 12.2899C16.3038 12.474 16.1799 12.7134 16.0959 12.9394C16.0118 13.1656 15.95 13.4264 15.95 13.6666V15.0833C15.95 15.6905 15.4489 16.1916 14.8417 16.1916H13.425C13.1813 16.1916 12.9205 16.2531 12.6938 16.3378C12.4674 16.4224 12.2311 16.5466 12.0482 16.7049C12.048 16.7051 12.0478 16.7053 12.0475 16.7055L10.7343 17.8358C10.3358 18.17 9.66989 18.1667 9.28381 17.8371C9.28363 17.8369 9.28345 17.8368 9.28328 17.8366L7.96913 16.7055C7.96893 16.7053 7.96873 16.7051 7.96853 16.7049C7.78436 16.5455 7.54498 16.4215 7.31895 16.3375C7.09274 16.2535 6.83186 16.1916 6.59167 16.1916H5.15C4.54281 16.1916 4.04167 15.6905 4.04167 15.0833V13.6583C4.04167 13.4178 3.97966 13.159 3.89703 12.9358C3.81415 12.7119 3.6935 12.4778 3.54244 12.2965L3.54246 12.2965L3.53948 12.293L2.41608 10.9699C2.41585 10.9696 2.41562 10.9694 2.41539 10.9691C2.08933 10.5803 2.08931 9.91974 2.41535 9.53089C2.41559 9.5306 2.41583 9.53031 2.41608 9.53003L3.53948 8.20692L3.5395 8.20693L3.54244 8.20339C3.6935 8.02213 3.81415 7.78808 3.89703 7.56417C3.97966 7.34094 4.04167 7.08216 4.04167 6.84163V5.41663C4.04167 4.80944 4.54281 4.3083 5.15 4.3083H6.59167C6.83163 4.3083 7.09199 4.24655 7.31669 4.16428C7.54177 4.08188 7.7791 3.96129 7.96176 3.80908ZM9.79522 13.0535L13.8202 9.02852C14.2571 8.59159 14.2571 7.87501 13.8202 7.43808C13.3833 7.00115 12.6667 7.00115 12.2298 7.43808L9 10.6679L7.77855 9.44641C7.34162 9.00949 6.62504 9.00949 6.18811 9.44641L6.54167 9.79997L6.18811 9.44641C5.75118 9.88334 5.75118 10.5999 6.18811 11.0369L8.20478 13.0535C8.41414 13.2629 8.69922 13.3833 9 13.3833C9.30078 13.3833 9.58586 13.2629 9.79522 13.0535Z" fill="#030A70" stroke="#030A70"/>
</svg>
