<svg width="29" height="28" viewBox="0 0 29 28" fill="none" xmlns="http://www.w3.org/2000/svg">
<g clip-path="url(#clip0_3189_1925)">
<path d="M4.32138 8.16732C4.32138 7.54848 4.56721 6.95499 5.0048 6.5174C5.44238 6.07982 6.03588 5.83398 6.65471 5.83398H22.988C23.6069 5.83398 24.2004 6.07982 24.638 6.5174C25.0755 6.95499 25.3214 7.54848 25.3214 8.16732V19.834C25.3214 20.4528 25.0755 21.0463 24.638 21.4839C24.2004 21.9215 23.6069 22.1673 22.988 22.1673H6.65471C6.03588 22.1673 5.44238 21.9215 5.0048 21.4839C4.56721 21.0463 4.32138 20.4528 4.32138 19.834V8.16732Z" stroke="#717274" stroke-width="1.5" stroke-linecap="round" stroke-linejoin="round"/>
<path d="M4.32138 8.16602L14.8214 15.166L25.3214 8.16602" stroke="#717274" stroke-width="1.5" stroke-linecap="round" stroke-linejoin="round"/>
</g>
<defs>
<clipPath id="clip0_3189_1925">
<rect width="28" height="28" fill="white" transform="translate(0.821381)"/>
</clipPath>
</defs>
</svg>
