<svg width="24" height="25" viewBox="0 0 24 25" fill="none" xmlns="http://www.w3.org/2000/svg">
<path d="M13.389 5.899L14.799 8.719C14.989 9.109 15.499 9.479 15.929 9.559L18.479 9.979C20.109 10.249 20.489 11.429 19.319 12.609L17.329 14.599C16.999 14.929 16.809 15.579 16.919 16.049L17.489 18.509C17.939 20.449 16.899 21.209 15.189 20.189L12.799 18.769C12.369 18.509 11.649 18.509 11.219 18.769L8.82903 20.189C7.11903 21.199 6.07903 20.449 6.52903 18.509L7.09903 16.049C7.18903 15.569 6.99903 14.919 6.66903 14.589L4.67903 12.599C3.50903 11.429 3.88903 10.249 5.51903 9.969L8.06903 9.549C8.49903 9.479 9.00903 9.099 9.19903 8.709L10.609 5.889C11.379 4.369 12.619 4.369 13.389 5.899Z" fill="#FCC230"/>
</svg>
