<svg width="50" height="50" viewBox="0 0 50 50" fill="none" xmlns="http://www.w3.org/2000/svg">
<rect width="50" height="50" rx="25" fill="#EDF1FB"/>
<path d="M30.29 17.14L30.22 20.93C30.21 21.45 30.54 22.14 30.96 22.45L33.44 24.33C35.03 25.53 34.77 27 32.87 27.6L29.64 28.61C29.1 28.78 28.53 29.37 28.39 29.92L27.62 32.86C27.01 35.18 25.49 35.41 24.23 33.37L22.47 30.52C22.15 30 21.39 29.61 20.79 29.64L17.45 29.81C15.06 29.93 14.38 28.55 15.94 26.73L17.92 24.43C18.29 24 18.46 23.2 18.29 22.66L17.27 19.42C16.68 17.52 17.74 16.47 19.63 17.09L22.58 18.06C23.08 18.22 23.83 18.11 24.25 17.8L27.33 15.58C29 14.39 30.33 15.09 30.29 17.14Z" fill="#030A70"/>
<path d="M34.44 33.4702L31.41 30.4402C31.12 30.1502 30.64 30.1502 30.35 30.4402C30.06 30.7302 30.06 31.2102 30.35 31.5002L33.38 34.5302C33.53 34.6802 33.72 34.7502 33.91 34.7502C34.1 34.7502 34.29 34.6802 34.44 34.5302C34.73 34.2402 34.73 33.7602 34.44 33.4702Z" fill="#030A70"/>
</svg>
