<svg width="20" height="21" viewBox="0 0 20 21" fill="none" xmlns="http://www.w3.org/2000/svg">
<path d="M14.1667 2.16675H5.83342C3.53341 2.16675 1.66675 4.02508 1.66675 6.31675V11.3001V12.1334C1.66675 14.4251 3.53341 16.2834 5.83342 16.2834H7.08342C7.30841 16.2834 7.60842 16.4334 7.75008 16.6167L9.00008 18.2751C9.55008 19.0084 10.4501 19.0084 11.0001 18.2751L12.2501 16.6167C12.4084 16.4084 12.6584 16.2834 12.9167 16.2834H14.1667C16.4667 16.2834 18.3334 14.4251 18.3334 12.1334V6.31675C18.3334 4.02508 16.4667 2.16675 14.1667 2.16675ZM6.66675 10.5001C6.20008 10.5001 5.83342 10.1251 5.83342 9.66675C5.83342 9.20842 6.20842 8.83342 6.66675 8.83342C7.12508 8.83342 7.50008 9.20842 7.50008 9.66675C7.50008 10.1251 7.13341 10.5001 6.66675 10.5001ZM10.0001 10.5001C9.53342 10.5001 9.16675 10.1251 9.16675 9.66675C9.16675 9.20842 9.54175 8.83342 10.0001 8.83342C10.4584 8.83342 10.8334 9.20842 10.8334 9.66675C10.8334 10.1251 10.4667 10.5001 10.0001 10.5001ZM13.3334 10.5001C12.8667 10.5001 12.5001 10.1251 12.5001 9.66675C12.5001 9.20842 12.8751 8.83342 13.3334 8.83342C13.7917 8.83342 14.1667 9.20842 14.1667 9.66675C14.1667 10.1251 13.8001 10.5001 13.3334 10.5001Z" fill="#C4C4C5"/>
</svg>
