<svg width="20" height="20" viewBox="0 0 20 20" fill="none" xmlns="http://www.w3.org/2000/svg">
<path d="M17.5089 4.85589L17.511 4.85608C17.5811 4.86276 17.6367 4.92357 17.6351 4.99774C17.6249 5.06182 17.5687 5.10834 17.5084 5.10834H17.5082H17.5081H17.5079H17.5078H17.5077H17.5075H17.5074H17.5072H17.5071H17.5069H17.5068H17.5066H17.5065H17.5064H17.5062H17.5061H17.5059H17.5058H17.5056H17.5055H17.5053H17.5052H17.5051H17.5049H17.5048H17.5046H17.5045H17.5044H17.5042H17.5041H17.5039H17.5038H17.5036H17.5035H17.5034H17.5032H17.5031H17.5029H17.5028H17.5027H17.5025H17.5024H17.5023H17.5021H17.502H17.5018H17.5017H17.5016H17.5014H17.5013H17.5011H17.501H17.5009H17.5007H17.5006H17.5005H17.5003H17.5002H17.5H17.4999H17.4998H17.4996H17.4995H17.4994H17.4992H17.4991H17.499H17.4988H17.4987H17.4986H17.4984H17.4983H17.4982H17.498H17.4979H17.4977H17.4976H17.4975H17.4973H17.4972H17.4971H17.4969H17.4968H17.4967H17.4965H17.4964H17.4963H17.4961H17.496H17.4959H17.4957H17.4956H17.4955H17.4954H17.4952H17.4951H17.495H17.4948H17.4947H17.4946H17.4944H17.4943H17.4942H17.494H17.4939H17.4938H17.4936H17.4935H17.4934H17.4933H17.4931H17.493H17.4929H17.4927H17.4926H17.4925H17.4924H17.4922H17.4921H17.492H17.4918H17.4917H17.4916H17.4914H17.4913H17.4912H17.4911H17.4909H17.4908H17.4907H17.4906H17.4904H17.4903H17.4902H17.49H17.4899H17.4898H17.4897H17.4895H17.4894H17.4893H17.4892H17.489H17.4889H17.4888H17.4886H17.4885H17.4884H17.4883H17.4881H17.488H17.4879H17.4878H17.4876H17.4875H17.4874H17.4873H17.4871H17.487H17.4869H17.4868H17.4866H17.4865H17.4864H17.4863H17.4861H17.486H17.4859H17.4858H17.4856H17.4855H17.4854H17.4853H17.4851H17.485H17.4849H17.4848H17.4846H17.4845H17.4844H17.4843H17.4841H17.484H17.4839H17.4838H17.4836H17.4835H17.4834H17.4833H17.4831H17.483H17.4829H17.4828H17.4826H17.4825H17.4824H17.4823H17.4822H17.482H17.4819H17.4818H17.4817H17.4815H17.4814H17.4813H17.4812H17.481H17.4809H17.4808H17.4807H17.4806H17.4804H17.4803H17.4802H17.4801H17.4799H17.4798H17.4797H17.4796H17.4795H17.4793H17.4792H17.4791H17.479H17.4788H17.4787H17.4786H17.4785H17.4783H17.4782H17.4781H17.478H17.4779H17.4777H17.4776H17.4775H17.4774H17.4772H17.4771H17.477H17.4769H17.4768H17.4766H17.4765H17.4764H17.4763H17.4761H17.476H17.4759H17.4758H17.4757H17.4755H17.4754H17.4753H17.4752H17.475H17.4749H17.4748H17.4747H17.4746H17.4744H17.4743H17.4742H17.4741H17.474H17.4738H17.4737H17.4736H17.4735H17.4733H17.4732H17.4731H17.473H17.4729H17.4727H17.4726H17.4725H17.4724H17.4722H17.4721H17.472H17.4719H17.4718H17.4716H17.4715H17.4714H17.4713H17.4711H17.471H17.4709H17.4708H17.4706H17.4705H17.4704H17.4703H17.4702H17.47H17.4699H17.4698H17.4697H17.4695H17.4694H17.4693H17.4692H17.4691H17.4689H17.4688H17.4687H17.4686H17.4684H17.4683H17.4682H17.4681H17.4679H17.4678H17.4677H17.4676H17.4675H17.4673H17.4672H17.4671H17.467H17.4668H17.4667H17.4666C13.0394 4.66663 8.6122 4.49886 4.20948 4.93573C4.20932 4.93575 4.20916 4.93576 4.20901 4.93578L2.51098 5.10225C2.51083 5.10227 2.51068 5.10228 2.51053 5.1023C2.43403 5.10936 2.37912 5.05908 2.37269 4.99312C2.36618 4.92639 2.41482 4.86316 2.48912 4.85608L2.48912 4.85608L2.4905 4.85595L4.18988 4.68934C4.19003 4.68933 4.19018 4.68931 4.19032 4.6893C4.95588 4.61522 5.72274 4.56571 6.49891 4.51563L6.89574 4.49003L6.96012 4.09762L7.13505 3.03138C7.13506 3.0313 7.13508 3.03122 7.13509 3.03113C7.20506 2.60698 7.27217 2.26507 7.48098 2.0078C7.6621 1.78465 8.02657 1.54167 8.90005 1.54167H11.0834C11.9545 1.54167 12.3219 1.79307 12.5058 2.02394C12.7174 2.28971 12.7827 2.6366 12.8482 3.03879L12.8482 3.0388L12.8487 3.04176L13.025 4.08368V4.523L13.4973 4.54923C14.8411 4.62388 16.1754 4.72336 17.5089 4.85589Z" fill="#717274" stroke="#717274"/>
<path d="M15.2666 6.95833C15.4114 6.95833 15.5547 7.01756 15.6606 7.12579C15.761 7.23699 15.8177 7.38714 15.8091 7.54632C15.8091 7.54664 15.8091 7.54695 15.8091 7.54726L15.2927 16.0836C15.2448 16.7491 15.1905 17.3078 14.8858 17.7248C14.6124 18.099 14.0439 18.4667 12.675 18.4667H7.32495C5.95694 18.4667 5.38812 18.0974 5.11434 17.722C4.80929 17.3038 4.75508 16.7446 4.7072 16.0835L4.19081 7.53814C4.19079 7.53791 4.19078 7.53768 4.19077 7.53746C4.18238 7.38721 4.23877 7.23507 4.34292 7.12186C4.43384 7.02304 4.58057 6.95833 4.73329 6.95833H15.2666ZM8.60829 15.2917H11.3833C12.0011 15.2917 12.5083 14.7845 12.5083 14.1667C12.5083 13.5489 12.0011 13.0417 11.3833 13.0417H8.60829C7.99048 13.0417 7.48329 13.5489 7.48329 14.1667C7.48329 14.7845 7.99048 15.2917 8.60829 15.2917ZM7.91662 11.9583H12.0833C12.7011 11.9583 13.2083 11.4511 13.2083 10.8333C13.2083 10.2155 12.7011 9.70833 12.0833 9.70833H7.91662C7.29881 9.70833 6.79162 10.2155 6.79162 10.8333C6.79162 11.4511 7.29881 11.9583 7.91662 11.9583Z" fill="#717274" stroke="#717274"/>
</svg>
